<svg xmlns="http://www.w3.org/2000/svg" width="64" height="64" viewBox="0 0 16 16">
<!-- Noa: Short bob hair (brown) + round horn-rimmed glasses (black), male pixel art -->
<!-- Hair (brown short bob) -->
<rect x="4" y="0" width="8" height="1" fill="#78350f"/>
<rect x="3" y="1" width="10" height="1" fill="#92400e"/>
<rect x="2" y="2" width="12" height="1" fill="#92400e"/>
<rect x="2" y="3" width="2" height="2" fill="#a16207"/>
<rect x="12" y="3" width="2" height="2" fill="#a16207"/>
<!-- Face -->
<rect x="4" y="3" width="8" height="1" fill="#fcd9b6"/>
<rect x="3" y="4" width="10" height="1" fill="#fcd9b6"/>
<!-- Glasses frame (black horn-rimmed) -->
<rect x="4" y="4" width="3" height="2" fill="#1c1917" opacity="0.7"/>
<rect x="9" y="4" width="3" height="2" fill="#1c1917" opacity="0.7"/>
<rect x="7" y="4" width="2" height="1" fill="#1c1917" opacity="0.7"/>
<!-- Eyes behind glasses -->
<rect x="5" y="4" width="1" height="1" fill="#fff"/>
<rect x="6" y="4" width="1" height="1" fill="#1e293b"/>
<rect x="10" y="4" width="1" height="1" fill="#fff"/>
<rect x="11" y="4" width="1" height="1" fill="#1e293b"/>
<rect x="5" y="5" width="1" height="1" fill="#fcd9b6"/>
<rect x="10" y="5" width="1" height="1" fill="#fcd9b6"/>
<!-- Lower face -->
<rect x="3" y="6" width="10" height="1" fill="#fcd9b6"/>
<rect x="7" y="6" width="2" height="1" fill="#0f172a"/>
<rect x="4" y="7" width="8" height="1" fill="#fcd9b6"/>
<rect x="5" y="8" width="6" height="1" fill="#fcd9b6"/>
<!-- Body (teal/verifier theme) -->
<rect x="3" y="9" width="10" height="1" fill="#0d9488"/>
<rect x="3" y="10" width="10" height="2" fill="#115e59"/>
<rect x="6" y="10" width="4" height="1" fill="#14b8a6"/>
<!-- Legs -->
<rect x="4" y="12" width="3" height="2" fill="#fcd9b6"/>
<rect x="9" y="12" width="3" height="2" fill="#fcd9b6"/>
</svg>
