<svg xmlns="http://www.w3.org/2000/svg" width="64" height="64" viewBox="0 0 16 16">
<!-- Simon: Code intelligence analyst with glasses, gray/slate theme -->
<rect x="4" y="0" width="8" height="1" fill="#374151"/>
<rect x="3" y="1" width="10" height="1" fill="#374151"/>
<rect x="3" y="2" width="10" height="1" fill="#fcd9b6"/>
<rect x="3" y="3" width="10" height="1" fill="#fcd9b6"/>
<!-- Glasses -->
<rect x="4" y="3" width="3" height="1" fill="#64748b"/>
<rect x="5" y="3" width="1" height="1" fill="#e2e8f0"/>
<rect x="9" y="3" width="3" height="1" fill="#64748b"/>
<rect x="10" y="3" width="1" height="1" fill="#e2e8f0"/>
<rect x="7" y="3" width="2" height="1" fill="#64748b"/>
<rect x="3" y="4" width="10" height="1" fill="#fcd9b6"/>
<rect x="3" y="5" width="10" height="1" fill="#fcd9b6"/>
<rect x="6" y="5" width="4" height="1" fill="#fca5a5"/>
<rect x="4" y="6" width="8" height="1" fill="#fcd9b6"/>
<rect x="5" y="7" width="6" height="1" fill="#fcd9b6"/>
<rect x="3" y="8" width="10" height="1" fill="#64748b"/>
<rect x="3" y="9" width="10" height="2" fill="#475569"/>
<rect x="7" y="8" width="2" height="1" fill="#334155"/>
<rect x="4" y="11" width="3" height="2" fill="#1e293b"/>
<rect x="9" y="11" width="3" height="2" fill="#1e293b"/>
</svg>
